<svg width="4636" height="658" viewBox="0 0 4636 658" fill="none" xmlns="http://www.w3.org/2000/svg">
<path d="M0.0806149 355.387H611.716V432.661H0.0806149V355.387ZM264.709 387.463H362.396V529.619H264.709V387.463ZM70.7941 578.462H543.918V655.737H70.7941V578.462ZM70.7941 473.486H167.023V614.913H70.7941V473.486ZM75.1681 242.391H545.376V317.479H75.1681V242.391ZM75.1681 14.2124H540.273V89.2999H171.397V275.925H75.1681V14.2124ZM144.424 129.395H524.964V201.567H144.424V129.395ZM4024.58 509.207H4635.48V588.668H4024.58V509.207ZM4278.27 359.032H4374.5V530.348H4278.27V359.032ZM4274.62 29.5215H4359.19V78.3649C4359.19 221.979 4254.94 348.826 4078.52 380.902L4038.43 299.982C4192.25 275.196 4274.62 171.678 4274.62 78.3649V29.5215ZM4293.58 29.5215H4378.14V78.3649C4378.14 173.865 4460.52 275.196 4615.07 299.982L4574.97 380.902C4397.83 348.097 4293.58 224.166 4293.58 78.3649V29.5215Z" fill="#AF2525"/>
<path d="M677.269 337.162H1274.32V386.734H677.269V337.162ZM949.917 367.78H1010.42V519.413H949.917V367.78ZM753.815 30.9795H1197.05V262.803H753.815V30.9795ZM1137.27 79.8229H812.864V213.96H1137.27V79.8229ZM753.086 595.229H1207.99V644.802H753.086V595.229ZM753.086 455.99H812.864V612.726H753.086V455.99ZM1646.06 41.9146C1783.11 41.9146 1885.17 114.815 1885.17 224.166C1885.17 334.246 1783.11 406.417 1646.06 406.417C1509.01 406.417 1406.22 334.246 1406.22 224.166C1406.22 114.815 1509.01 41.9146 1646.06 41.9146ZM1646.06 91.487C1541.81 91.487 1464.54 144.704 1464.54 224.166C1464.54 302.898 1541.81 356.845 1646.06 356.845C1750.31 356.845 1827.58 302.898 1827.58 224.166C1827.58 144.704 1750.31 91.487 1646.06 91.487ZM1348.63 521.6H1945.68V572.63H1348.63V521.6ZM2019.25 528.161H2616.31V578.462H2019.25V528.161ZM2286.07 386.734H2346.58V549.302H2286.07V386.734ZM2091.43 49.2046H2542.68V248.952H2153.39V380.902H2093.61V200.109H2482.9V98.048H2091.43V49.2046ZM2093.61 355.387H2557.99V404.959H2093.61V355.387ZM2689.88 275.196H3285.48V324.769H2689.88V275.196ZM2768.61 173.136H3214.77V221.979H2768.61V173.136ZM2768.61 21.5025H3207.48V71.0748H2828.39V212.502H2768.61V21.5025ZM2761.32 381.631H3208.93V536.909H2822.56V620.016H2762.78V491.711H3149.15V429.016H2761.32V381.631ZM2762.78 603.978H3228.62V652.092H2762.78V603.978ZM3528.18 402.043H3575.57V439.951C3575.57 527.432 3521.62 614.913 3426.85 651.363L3396.23 606.165C3479.34 575.546 3528.18 504.104 3528.18 439.951V402.043ZM3542.03 402.043H3587.23V439.951C3587.23 507.02 3625.87 579.191 3705.33 611.268L3679.81 657.195C3584.31 620.016 3542.03 528.161 3542.03 439.951V402.043ZM3772.4 402.043H3816.87V439.951C3816.87 517.955 3773.85 617.1 3679.81 657.195L3653.57 611.268C3732.3 574.817 3772.4 497.543 3772.4 439.951V402.043ZM3784.06 402.043H3831.45V439.951C3831.45 509.207 3879.56 577.733 3964.13 606.165L3932.78 651.363C3837.28 616.371 3784.06 531.806 3784.06 439.951V402.043ZM3684.19 165.116H3858.42V215.418H3684.19V165.116ZM3539.84 37.5406C3636.8 37.5406 3708.97 100.964 3708.97 192.09C3708.97 282.486 3636.8 345.91 3539.84 345.91C3442.89 345.91 3371.44 282.486 3371.44 192.09C3371.44 100.964 3442.89 37.5406 3539.84 37.5406ZM3539.84 87.8419C3475.69 87.8419 3429.04 131.582 3429.04 192.09C3429.04 252.597 3475.69 295.608 3539.84 295.608C3603.27 295.608 3650.65 252.597 3650.65 192.09C3650.65 131.582 3603.27 87.8419 3539.84 87.8419ZM3841.65 0.361321H3902.16V375.799H3841.65V0.361321Z" fill="#3C3C3C"/>
</svg>
