<svg width="5819" height="5819" viewBox="0 0 5819 5819" fill="none" xmlns="http://www.w3.org/2000/svg">
<path d="M4208.27 0.439453C3671.93 0.439453 3202.34 269.582 2909.62 724.518C2616.91 269.582 2147.32 0.439453 1610.98 0.439453C1184.04 1.001 774.729 199.163 472.839 551.45C170.95 903.737 1.13746 1381.38 0.65625 1879.59C0.65625 4001.21 2696.38 5718.51 2811.18 5789.43C2841.44 5808.43 2875.26 5818.37 2909.62 5818.37C2943.98 5818.37 2977.8 5808.43 3008.06 5789.43C3122.86 5718.51 5818.59 4001.21 5818.59 1879.59C5818.1 1381.38 5648.29 903.737 5346.4 551.45C5044.51 199.163 4635.2 1.001 4208.27 0.439453ZM2909.62 5298.43C2435.36 4975.94 416.223 3506.87 416.223 1879.59C416.635 1509.97 542.643 1155.63 766.613 894.267C990.584 632.906 1294.23 485.862 1610.98 485.381C2116.15 485.381 2540.29 799.381 2717.42 1303.72C2733.08 1348.19 2759.71 1386.23 2793.93 1413C2828.15 1439.77 2868.42 1454.06 2909.62 1454.06C2950.82 1454.06 2991.09 1439.77 3025.31 1413C3059.54 1386.23 3086.17 1348.19 3101.82 1303.72C3278.96 798.472 3703.09 485.381 4208.27 485.381C4525.01 485.862 4828.66 632.906 5052.63 894.267C5276.6 1155.63 5402.61 1509.97 5403.02 1879.59C5403.02 3504.45 3383.37 4975.64 2909.62 5298.43Z" fill="#ccc"/>
</svg>
